<svg viewBox="0 0 520 170" xmlns="http://www.w3.org/2000/svg" font-family="Arial, sans-serif">
  <defs>
    <clipPath id="flagclip">
      <rect x="12" y="26" width="72" height="48" rx="3"/>
    </clipPath>
  </defs>
  <g clip-path="url(#flagclip)">
    <g transform="translate(12,26) scale(0.112500,0.100000)">
      <path fill="#000091" d="M0 0h213.3v480H0z"/>
  <path fill="#fff" d="M213.3 0h213.4v480H213.3z"/>
  <path fill="#e1000f" d="M426.7 0H640v480H426.7z"/>
    </g>
  </g>
  <rect x="12" y="26" width="72" height="48" rx="3" fill="none" stroke="#ccc" stroke-width="0.5"/>
  <text x="48" y="86" text-anchor="middle" font-size="11" fill="#000091" font-weight="bold">Français</text>

  <rect x="100" y="28" width="300" height="22" rx="4" fill="#e8e8e8"/>
  <rect x="100" y="28" width="100" height="22"  rx="4" fill="#8BA7E0"/>
  <line x1="200" y1="28" x2="200" y2="50" stroke="white" stroke-width="2"/>
  <line x1="300" y1="28" x2="300" y2="50" stroke="white" stroke-width="2"/>
  <text x="412" y="43" font-size="13" fill="#1a1a1a" font-weight="500">Parler</text>

  <rect x="100" y="62" width="300" height="22" rx="4" fill="#e8e8e8"/>
  <rect x="100" y="62" width="100" height="22"  rx="4" fill="#8BA7E0"/>
  <line x1="200" y1="62" x2="200" y2="84" stroke="white" stroke-width="2"/>
  <line x1="300" y1="62" x2="300" y2="84" stroke="white" stroke-width="2"/>
  <text x="412" y="77" font-size="13" fill="#1a1a1a" font-weight="500">Lire</text>

  <rect x="100" y="96" width="300" height="22" rx="4" fill="#e8e8e8"/>
  <rect x="100" y="96" width="100" height="22"  rx="4" fill="#8BA7E0"/>
  <line x1="200" y1="96" x2="200" y2="118" stroke="white" stroke-width="2"/>
  <line x1="300" y1="96" x2="300" y2="118" stroke="white" stroke-width="2"/>
  <text x="412" y="111" font-size="13" fill="#1a1a1a" font-weight="500">Écrire</text>


  <rect x="100" y="136" width="12" height="10" rx="2" fill="#8BA7E0"/>
  <text x="116" y="145" font-size="11" fill="#555">Basique</text>
  <rect x="178" y="136" width="12" height="10" rx="2" fill="#2B4FB5"/>
  <text x="194" y="145" font-size="11" fill="#555">Intermédiaire</text>
  <rect x="292" y="136" width="12" height="10" rx="2" fill="#000091"/>
  <text x="308" y="145" font-size="11" fill="#555">Avancé</text>

</svg>